<?xml version="1.0" encoding="UTF-8" standalone="no"?>
<svg xmlns="http://www.w3.org/2000/svg" width="199.241mm" height="83.004mm" viewBox="5.000 -4.204 199.241 83.004" version="1.1"><rect x="5.000" y="-4.204" width="199.241" height="83.004" fill="#ffffff"/><g id="content"><g transform="translate(14.000,9.000) translate(2.205,0) scale(0.3728)"><path style="fill:none;stroke:#ababab;stroke-width:1.0026" d="m 0,0 1.316032,-0.0019 1.299165,1.046678 1.402923,-2.373415 1.402921,2.373415 1.402922,-2.373415 1.402921,2.373415 1.402922,-2.373415 1.402922,2.373415 1.452059,-2.373414 1.402921,2.373415 1.402922,-2.373415 1.402921,2.373415 1.402922,-2.373415 0.772267,1.306495 1.488466,0.03755"/></g><g transform="translate(26.000,9.000) translate(2.205,0) scale(0.3728)"><path style="fill:none;stroke:#ababab;stroke-width:1.0026" d="m 0,0 1.316032,-0.0019 1.299165,1.046678 1.402923,-2.373415 1.402921,2.373415 1.402922,-2.373415 1.402921,2.373415 1.402922,-2.373415 1.402922,2.373415 1.452059,-2.373414 1.402921,2.373415 1.402922,-2.373415 1.402921,2.373415 1.402922,-2.373415 0.772267,1.306495 1.488466,0.03755"/></g><g transform="translate(38.000,9.000) translate(2.205,0) scale(0.3728)"><path style="fill:none;stroke:#ababab;stroke-width:1.0026" d="m 0,0 1.316032,-0.0019 1.299165,1.046678 1.402923,-2.373415 1.402921,2.373415 1.402922,-2.373415 1.402921,2.373415 1.402922,-2.373415 1.402922,2.373415 1.452059,-2.373414 1.402921,2.373415 1.402922,-2.373415 1.402921,2.373415 1.402922,-2.373415 0.772267,1.306495 1.488466,0.03755"/></g><g transform="translate(50.000,9.000) translate(2.205,0) scale(0.3728)"><path style="fill:none;stroke:#ababab;stroke-width:1.0026" d="m 0,0 1.316032,-0.0019 1.299165,1.046678 1.402923,-2.373415 1.402921,2.373415 1.402922,-2.373415 1.402921,2.373415 1.402922,-2.373415 1.402922,2.373415 1.452059,-2.373414 1.402921,2.373415 1.402922,-2.373415 1.402921,2.373415 1.402922,-2.373415 0.772267,1.306495 1.488466,0.03755"/></g><g transform="translate(62.000,9.000) translate(2.205,0) scale(0.3728)"><path style="fill:none;stroke:#ababab;stroke-width:1.0026" d="m 0,0 1.316032,-0.0019 1.299165,1.046678 1.402923,-2.373415 1.402921,2.373415 1.402922,-2.373415 1.402921,2.373415 1.402922,-2.373415 1.402922,2.373415 1.452059,-2.373414 1.402921,2.373415 1.402922,-2.373415 1.402921,2.373415 1.402922,-2.373415 0.772267,1.306495 1.488466,0.03755"/></g><circle style="fill:#939393" cx="14.000" cy="9.000" r="2.705"/><text style="font-size:3.52778px;font-family:Arial,'Liberation Sans',sans-serif;text-anchor:middle" x="14.000" y="10.252">0</text><circle style="fill:#d96464" cx="26.000" cy="9.000" r="2.705"/><text style="font-size:3.52778px;font-family:Arial,'Liberation Sans',sans-serif;text-anchor:middle" x="26.000" y="10.252">1</text><circle style="fill:#d96464" cx="38.000" cy="9.000" r="2.705"/><text style="font-size:3.52778px;font-family:Arial,'Liberation Sans',sans-serif;text-anchor:middle" x="38.000" y="10.252">2</text><circle style="fill:#d96464" cx="50.000" cy="9.000" r="2.705"/><text style="font-size:3.52778px;font-family:Arial,'Liberation Sans',sans-serif;text-anchor:middle" x="50.000" y="10.252">3</text><circle style="fill:#d96464" cx="62.000" cy="9.000" r="2.705"/><text style="font-size:3.52778px;font-family:Arial,'Liberation Sans',sans-serif;text-anchor:middle" x="62.000" y="10.252">4</text><circle style="fill:#d96464" cx="74.000" cy="9.000" r="2.705"/><text style="font-size:3.52778px;font-family:Arial,'Liberation Sans',sans-serif;text-anchor:middle" x="74.000" y="10.252">5</text><text style="font-size:3.2px;font-family:Arial,'Liberation Sans',sans-serif;text-anchor:middle;fill:#000000;font-weight:normal" x="14.000" y="4.800">(fixed)</text><rect x="20.400" y="17.900" width="11.200" height="11.200" style="fill:#dce6f5;stroke:none;stroke-width:0"/><text style="font-size:3.52777px;font-family:Arial,'Liberation Sans',sans-serif;text-anchor:middle;fill:#15428e;font-weight:normal" x="26.000" y="24.750">2<tspan style="font-style:italic">k</tspan></text><rect x="32.400" y="17.900" width="11.200" height="11.200" style="fill:#d8efe2;stroke:none;stroke-width:0"/><text style="font-size:3.52777px;font-family:Arial,'Liberation Sans',sans-serif;text-anchor:middle;fill:#158e50;font-weight:normal" x="38.000" y="24.750">−<tspan style="font-style:italic">k</tspan></text><text style="font-size:3.52777px;font-family:Arial,'Liberation Sans',sans-serif;text-anchor:middle;fill:#9a9a9a;font-weight:normal" x="50.000" y="24.750">0</text><text style="font-size:3.52777px;font-family:Arial,'Liberation Sans',sans-serif;text-anchor:middle;fill:#9a9a9a;font-weight:normal" x="62.000" y="24.750">0</text><text style="font-size:3.52777px;font-family:Arial,'Liberation Sans',sans-serif;text-anchor:middle;fill:#9a9a9a;font-weight:normal" x="74.000" y="24.750">0</text><rect x="20.400" y="29.900" width="11.200" height="11.200" style="fill:#f4dada;stroke:none;stroke-width:0"/><text style="font-size:3.52777px;font-family:Arial,'Liberation Sans',sans-serif;text-anchor:middle;fill:#931212;font-weight:normal" x="26.000" y="36.750">−<tspan style="font-style:italic">k</tspan></text><rect x="32.400" y="29.900" width="11.200" height="11.200" style="fill:#dce6f5;stroke:none;stroke-width:0"/><text style="font-size:3.52777px;font-family:Arial,'Liberation Sans',sans-serif;text-anchor:middle;fill:#15428e;font-weight:normal" x="38.000" y="36.750">2<tspan style="font-style:italic">k</tspan></text><rect x="44.400" y="29.900" width="11.200" height="11.200" style="fill:#d8efe2;stroke:none;stroke-width:0"/><text style="font-size:3.52777px;font-family:Arial,'Liberation Sans',sans-serif;text-anchor:middle;fill:#158e50;font-weight:normal" x="50.000" y="36.750">−<tspan style="font-style:italic">k</tspan></text><text style="font-size:3.52777px;font-family:Arial,'Liberation Sans',sans-serif;text-anchor:middle;fill:#9a9a9a;font-weight:normal" x="62.000" y="36.750">0</text><text style="font-size:3.52777px;font-family:Arial,'Liberation Sans',sans-serif;text-anchor:middle;fill:#9a9a9a;font-weight:normal" x="74.000" y="36.750">0</text><text style="font-size:3.52777px;font-family:Arial,'Liberation Sans',sans-serif;text-anchor:middle;fill:#9a9a9a;font-weight:normal" x="26.000" y="48.750">0</text><rect x="32.400" y="41.900" width="11.200" height="11.200" style="fill:#f4dada;stroke:none;stroke-width:0"/><text style="font-size:3.52777px;font-family:Arial,'Liberation Sans',sans-serif;text-anchor:middle;fill:#931212;font-weight:normal" x="38.000" y="48.750">−<tspan style="font-style:italic">k</tspan></text><rect x="44.400" y="41.900" width="11.200" height="11.200" style="fill:#dce6f5;stroke:none;stroke-width:0"/><text style="font-size:3.52777px;font-family:Arial,'Liberation Sans',sans-serif;text-anchor:middle;fill:#15428e;font-weight:normal" x="50.000" y="48.750">2<tspan style="font-style:italic">k</tspan></text><rect x="56.400" y="41.900" width="11.200" height="11.200" style="fill:#d8efe2;stroke:none;stroke-width:0"/><text style="font-size:3.52777px;font-family:Arial,'Liberation Sans',sans-serif;text-anchor:middle;fill:#158e50;font-weight:normal" x="62.000" y="48.750">−<tspan style="font-style:italic">k</tspan></text><text style="font-size:3.52777px;font-family:Arial,'Liberation Sans',sans-serif;text-anchor:middle;fill:#9a9a9a;font-weight:normal" x="74.000" y="48.750">0</text><text style="font-size:3.52777px;font-family:Arial,'Liberation Sans',sans-serif;text-anchor:middle;fill:#9a9a9a;font-weight:normal" x="26.000" y="60.750">0</text><text style="font-size:3.52777px;font-family:Arial,'Liberation Sans',sans-serif;text-anchor:middle;fill:#9a9a9a;font-weight:normal" x="38.000" y="60.750">0</text><rect x="44.400" y="53.900" width="11.200" height="11.200" style="fill:#f4dada;stroke:none;stroke-width:0"/><text style="font-size:3.52777px;font-family:Arial,'Liberation Sans',sans-serif;text-anchor:middle;fill:#931212;font-weight:normal" x="50.000" y="60.750">−<tspan style="font-style:italic">k</tspan></text><rect x="56.400" y="53.900" width="11.200" height="11.200" style="fill:#dce6f5;stroke:none;stroke-width:0"/><text style="font-size:3.52777px;font-family:Arial,'Liberation Sans',sans-serif;text-anchor:middle;fill:#15428e;font-weight:normal" x="62.000" y="60.750">2<tspan style="font-style:italic">k</tspan></text><rect x="68.400" y="53.900" width="11.200" height="11.200" style="fill:#d8efe2;stroke:none;stroke-width:0"/><text style="font-size:3.52777px;font-family:Arial,'Liberation Sans',sans-serif;text-anchor:middle;fill:#158e50;font-weight:normal" x="74.000" y="60.750">−<tspan style="font-style:italic">k</tspan></text><text style="font-size:3.52777px;font-family:Arial,'Liberation Sans',sans-serif;text-anchor:middle;fill:#9a9a9a;font-weight:normal" x="26.000" y="72.750">0</text><text style="font-size:3.52777px;font-family:Arial,'Liberation Sans',sans-serif;text-anchor:middle;fill:#9a9a9a;font-weight:normal" x="38.000" y="72.750">0</text><text style="font-size:3.52777px;font-family:Arial,'Liberation Sans',sans-serif;text-anchor:middle;fill:#9a9a9a;font-weight:normal" x="50.000" y="72.750">0</text><rect x="56.400" y="65.900" width="11.200" height="11.200" style="fill:#f4dada;stroke:none;stroke-width:0"/><text style="font-size:3.52777px;font-family:Arial,'Liberation Sans',sans-serif;text-anchor:middle;fill:#931212;font-weight:normal" x="62.000" y="72.750">−<tspan style="font-style:italic">k</tspan></text><rect x="68.400" y="65.900" width="11.200" height="11.200" style="fill:#dce6f5;stroke:none;stroke-width:0"/><text style="font-size:3.52777px;font-family:Arial,'Liberation Sans',sans-serif;text-anchor:middle;fill:#15428e;font-weight:normal" x="74.000" y="72.750"><tspan style="font-style:italic">k</tspan></text><path style="fill:none;stroke:#000;stroke-width:0.45" d="M 20.600,17.200 H 19.200 V 77.800 H 20.600"/><path style="fill:none;stroke:#000;stroke-width:0.45" d="M 79.400,17.200 H 80.800 V 77.800 H 79.400"/><text style="font-size:3.9px;font-family:Arial,'Liberation Sans',sans-serif;text-anchor:end;fill:#000000;font-weight:normal" x="17.000" y="48.750"><tspan style="font-weight:bold">K</tspan> =</text><path style="fill:none;stroke:#c8c8c8;stroke-width:0.3;stroke-dasharray:0.8,0.8" d="M 26.000,12.505 V 16.300"/><path style="fill:none;stroke:#c8c8c8;stroke-width:0.3;stroke-dasharray:0.8,0.8" d="M 38.000,12.505 V 16.300"/><path style="fill:none;stroke:#c8c8c8;stroke-width:0.3;stroke-dasharray:0.8,0.8" d="M 50.000,12.505 V 16.300"/><path style="fill:none;stroke:#c8c8c8;stroke-width:0.3;stroke-dasharray:0.8,0.8" d="M 62.000,12.505 V 16.300"/><path style="fill:none;stroke:#c8c8c8;stroke-width:0.3;stroke-dasharray:0.8,0.8" d="M 74.000,12.505 V 16.300"/><text style="font-size:4.23333px;font-family:Arial,'Liberation Sans',sans-serif;text-anchor:start;fill:#000000;font-weight:normal" x="6.000" y="0.500">(a)</text><g transform="translate(103.500,9.000) translate(1.400,0) scale(0.3046)"><path style="fill:none;stroke:#ababab;stroke-width:1.2272" d="m 0,0 1.316032,-0.0019 1.299165,1.046678 1.402923,-2.373415 1.402921,2.373415 1.402922,-2.373415 1.402921,2.373415 1.402922,-2.373415 1.402922,2.373415 1.452059,-2.373414 1.402921,2.373415 1.402922,-2.373415 1.402921,2.373415 1.402922,-2.373415 0.772267,1.306495 1.488466,0.03755"/></g><g transform="translate(112.500,9.000) translate(1.400,0) scale(0.3046)"><path style="fill:none;stroke:#ababab;stroke-width:1.2272" d="m 0,0 1.316032,-0.0019 1.299165,1.046678 1.402923,-2.373415 1.402921,2.373415 1.402922,-2.373415 1.402921,2.373415 1.402922,-2.373415 1.402922,2.373415 1.452059,-2.373414 1.402921,2.373415 1.402922,-2.373415 1.402921,2.373415 1.402922,-2.373415 0.772267,1.306495 1.488466,0.03755"/></g><g transform="translate(121.500,9.000) translate(1.400,0) scale(0.3046)"><path style="fill:none;stroke:#ababab;stroke-width:1.2272" d="m 0,0 1.316032,-0.0019 1.299165,1.046678 1.402923,-2.373415 1.402921,2.373415 1.402922,-2.373415 1.402921,2.373415 1.402922,-2.373415 1.402922,2.373415 1.452059,-2.373414 1.402921,2.373415 1.402922,-2.373415 1.402921,2.373415 1.402922,-2.373415 0.772267,1.306495 1.488466,0.03755"/></g><text style="font-size:4.5px;font-family:Arial,'Liberation Sans',sans-serif;text-anchor:middle;fill:#000000;font-weight:normal" x="144.700" y="10.000">⋯</text><g transform="translate(157.000,9.000) translate(1.400,0) scale(0.3046)"><path style="fill:none;stroke:#ababab;stroke-width:1.2272" d="m 0,0 1.316032,-0.0019 1.299165,1.046678 1.402923,-2.373415 1.402921,2.373415 1.402922,-2.373415 1.402921,2.373415 1.402922,-2.373415 1.402922,2.373415 1.452059,-2.373414 1.402921,2.373415 1.402922,-2.373415 1.402921,2.373415 1.402922,-2.373415 0.772267,1.306495 1.488466,0.03755"/></g><circle style="fill:#939393" cx="103.500" cy="9.000" r="1.900"/><text style="font-size:3.0px;font-family:Arial,'Liberation Sans',sans-serif;text-anchor:middle" x="103.500" y="10.065">0</text><circle style="fill:#d96464" cx="112.500" cy="9.000" r="1.900"/><text style="font-size:3.0px;font-family:Arial,'Liberation Sans',sans-serif;text-anchor:middle" x="112.500" y="10.065">1</text><circle style="fill:#d96464" cx="121.500" cy="9.000" r="1.900"/><text style="font-size:3.0px;font-family:Arial,'Liberation Sans',sans-serif;text-anchor:middle" x="121.500" y="10.065">2</text><circle style="fill:#d96464" cx="130.500" cy="9.000" r="1.900"/><text style="font-size:3.0px;font-family:Arial,'Liberation Sans',sans-serif;text-anchor:middle" x="130.500" y="10.065">3</text><circle style="fill:#d96464" cx="166.000" cy="9.000" r="1.900"/><text style="font-size:3.0px;font-family:Arial,'Liberation Sans',sans-serif;text-anchor:middle" x="166.000" y="10.065"><tspan style="font-style:italic">N</tspan></text><text style="font-size:3.2px;font-family:Arial,'Liberation Sans',sans-serif;text-anchor:middle;fill:#000000;font-weight:normal" x="103.500" y="5.400">(fixed)</text><rect x="108.150" y="17.650" width="3.700" height="3.700" style="fill:#dce6f5;stroke:none;stroke-width:0"/><rect x="112.150" y="17.650" width="3.700" height="3.700" style="fill:#d8efe2;stroke:none;stroke-width:0"/><rect x="112.150" y="21.650" width="3.700" height="3.700" style="fill:#dce6f5;stroke:none;stroke-width:0"/><rect x="116.150" y="21.650" width="3.700" height="3.700" style="fill:#d8efe2;stroke:none;stroke-width:0"/><rect x="108.150" y="21.650" width="3.700" height="3.700" style="fill:#f4dada;stroke:none;stroke-width:0"/><rect x="116.150" y="25.650" width="3.700" height="3.700" style="fill:#dce6f5;stroke:none;stroke-width:0"/><rect x="120.150" y="25.650" width="3.700" height="3.700" style="fill:#d8efe2;stroke:none;stroke-width:0"/><rect x="112.150" y="25.650" width="3.700" height="3.700" style="fill:#f4dada;stroke:none;stroke-width:0"/><rect x="120.150" y="29.650" width="3.700" height="3.700" style="fill:#dce6f5;stroke:none;stroke-width:0"/><rect x="124.150" y="29.650" width="3.700" height="3.700" style="fill:#d8efe2;stroke:none;stroke-width:0"/><rect x="116.150" y="29.650" width="3.700" height="3.700" style="fill:#f4dada;stroke:none;stroke-width:0"/><rect x="124.150" y="33.650" width="3.700" height="3.700" style="fill:#dce6f5;stroke:none;stroke-width:0"/><rect x="128.150" y="33.650" width="3.700" height="3.700" style="fill:#d8efe2;stroke:none;stroke-width:0"/><rect x="120.150" y="33.650" width="3.700" height="3.700" style="fill:#f4dada;stroke:none;stroke-width:0"/><rect x="128.150" y="37.650" width="3.700" height="3.700" style="fill:#dce6f5;stroke:none;stroke-width:0"/><rect x="132.150" y="37.650" width="3.700" height="3.700" style="fill:#d8efe2;stroke:none;stroke-width:0"/><rect x="124.150" y="37.650" width="3.700" height="3.700" style="fill:#f4dada;stroke:none;stroke-width:0"/><rect x="132.150" y="41.650" width="3.700" height="3.700" style="fill:#dce6f5;stroke:none;stroke-width:0"/><rect x="136.150" y="41.650" width="3.700" height="3.700" style="fill:#d8efe2;stroke:none;stroke-width:0"/><rect x="128.150" y="41.650" width="3.700" height="3.700" style="fill:#f4dada;stroke:none;stroke-width:0"/><rect x="136.150" y="45.650" width="3.700" height="3.700" style="fill:#dce6f5;stroke:none;stroke-width:0"/><rect x="140.150" y="45.650" width="3.700" height="3.700" style="fill:#d8efe2;stroke:none;stroke-width:0"/><rect x="132.150" y="45.650" width="3.700" height="3.700" style="fill:#f4dada;stroke:none;stroke-width:0"/><rect x="140.150" y="49.650" width="3.700" height="3.700" style="fill:#dce6f5;stroke:none;stroke-width:0"/><rect x="144.150" y="49.650" width="3.700" height="3.700" style="fill:#d8efe2;stroke:none;stroke-width:0"/><rect x="136.150" y="49.650" width="3.700" height="3.700" style="fill:#f4dada;stroke:none;stroke-width:0"/><rect x="144.150" y="53.650" width="3.700" height="3.700" style="fill:#dce6f5;stroke:none;stroke-width:0"/><rect x="148.150" y="53.650" width="3.700" height="3.700" style="fill:#d8efe2;stroke:none;stroke-width:0"/><rect x="140.150" y="53.650" width="3.700" height="3.700" style="fill:#f4dada;stroke:none;stroke-width:0"/><rect x="148.150" y="57.650" width="3.700" height="3.700" style="fill:#dce6f5;stroke:none;stroke-width:0"/><rect x="152.150" y="57.650" width="3.700" height="3.700" style="fill:#d8efe2;stroke:none;stroke-width:0"/><rect x="144.150" y="57.650" width="3.700" height="3.700" style="fill:#f4dada;stroke:none;stroke-width:0"/><rect x="152.150" y="61.650" width="3.700" height="3.700" style="fill:#dce6f5;stroke:none;stroke-width:0"/><rect x="156.150" y="61.650" width="3.700" height="3.700" style="fill:#d8efe2;stroke:none;stroke-width:0"/><rect x="148.150" y="61.650" width="3.700" height="3.700" style="fill:#f4dada;stroke:none;stroke-width:0"/><rect x="156.150" y="65.650" width="3.700" height="3.700" style="fill:#dce6f5;stroke:none;stroke-width:0"/><rect x="160.150" y="65.650" width="3.700" height="3.700" style="fill:#d8efe2;stroke:none;stroke-width:0"/><rect x="152.150" y="65.650" width="3.700" height="3.700" style="fill:#f4dada;stroke:none;stroke-width:0"/><rect x="160.150" y="69.650" width="3.700" height="3.700" style="fill:#dce6f5;stroke:none;stroke-width:0"/><rect x="164.150" y="69.650" width="3.700" height="3.700" style="fill:#d8efe2;stroke:none;stroke-width:0"/><rect x="156.150" y="69.650" width="3.700" height="3.700" style="fill:#f4dada;stroke:none;stroke-width:0"/><rect x="164.150" y="73.650" width="3.700" height="3.700" style="fill:#dce6f5;stroke:none;stroke-width:0"/><rect x="160.150" y="73.650" width="3.700" height="3.700" style="fill:#f4dada;stroke:none;stroke-width:0"/><path style="fill:none;stroke:#000;stroke-width:0.45" d="M 108.600,17.200 H 107.200 V 77.800 H 108.600"/><path style="fill:none;stroke:#000;stroke-width:0.45" d="M 167.400,17.200 H 168.800 V 77.800 H 167.400"/><text style="font-size:7.0px;font-family:Arial,'Liberation Sans',sans-serif;text-anchor:middle;fill:#9a9a9a;font-weight:normal" x="152.400" y="36.700">0</text><text style="font-size:7.0px;font-family:Arial,'Liberation Sans',sans-serif;text-anchor:middle;fill:#9a9a9a;font-weight:normal" x="123.600" y="65.500">0</text><text style="font-size:3.9px;font-family:Arial,'Liberation Sans',sans-serif;text-anchor:end;fill:#000000;font-weight:normal" x="105.000" y="48.750"><tspan style="font-weight:bold">K</tspan> =</text><rect x="172.000" y="19.500" width="3.200" height="3.200" style="fill:#dce6f5;stroke:none;stroke-width:0"/><text style="font-size:3.2px;font-family:Arial,'Liberation Sans',sans-serif;text-anchor:start;fill:#15428e;font-weight:normal" x="176.600" y="22.250">main diagonal: 2<tspan style="font-style:italic">k</tspan></text><rect x="172.000" y="25.500" width="3.200" height="3.200" style="fill:#d8efe2;stroke:none;stroke-width:0"/><text style="font-size:3.2px;font-family:Arial,'Liberation Sans',sans-serif;text-anchor:start;fill:#158e50;font-weight:normal" x="176.600" y="28.250">upper diagonal: −<tspan style="font-style:italic">k</tspan></text><rect x="172.000" y="31.500" width="3.200" height="3.200" style="fill:#f4dada;stroke:none;stroke-width:0"/><text style="font-size:3.2px;font-family:Arial,'Liberation Sans',sans-serif;text-anchor:start;fill:#931212;font-weight:normal" x="176.600" y="34.250">lower diagonal: −<tspan style="font-style:italic">k</tspan></text><text style="font-size:3.2px;font-family:Arial,'Liberation Sans',sans-serif;text-anchor:start;fill:#000000;font-weight:normal" x="172.000" y="43.500"><tspan style="font-style:italic">N</tspan> × <tspan style="font-style:italic">N</tspan> matrix:</text><text style="font-size:3.2px;font-family:Arial,'Liberation Sans',sans-serif;text-anchor:start;fill:#000000;font-weight:normal" x="172.000" y="48.500"><tspan style="font-style:italic">N</tspan><tspan style="font-size:65%;baseline-shift:super">2</tspan> entries,</text><text style="font-size:3.2px;font-family:Arial,'Liberation Sans',sans-serif;text-anchor:start;fill:#000000;font-weight:normal" x="172.000" y="53.500">about 3<tspan style="font-style:italic">N</tspan> nonzero</text><text style="font-size:4.23333px;font-family:Arial,'Liberation Sans',sans-serif;text-anchor:start;fill:#000000;font-weight:normal" x="94.000" y="0.500">(b)</text></g></svg>
