<?xml version="1.0" encoding="UTF-8" standalone="no"?>
<svg xmlns="http://www.w3.org/2000/svg" width="164.0mm" height="74.0mm" viewBox="0 0 164.0 74.0" version="1.1">
<defs><marker style="overflow:visible" id="Tri" refX="0" refY="0" orient="auto-start-reverse" markerWidth="1" markerHeight="1" viewBox="0 0 1 1" preserveAspectRatio="xMidYMid"><path transform="scale(0.5)" style="fill:context-stroke;stroke:context-stroke;stroke-width:1pt" d="M 5.77,0 -2.88,5 V -5 Z"/></marker><pattern id="hatch" patternUnits="userSpaceOnUse" width="1.1" height="1.1" patternTransform="rotate(45)"><rect width="1.1" height="1.1" fill="#e6e6e6"/><line x1="0" y1="0" x2="0" y2="1.1" stroke="#6f6f6f" stroke-width="0.4"/></pattern></defs><rect width="164.0" height="74.0" fill="#ffffff"/><text style="font-size:3.5px;font-family:Arial,'Liberation Sans',sans-serif;text-anchor:start;fill:#000;font-weight:bold" x="2.000" y="5.500">(a) Compressed springs at the origin</text><text style="font-size:3.5px;font-family:Arial,'Liberation Sans',sans-serif;text-anchor:start;fill:#000;font-weight:bold" x="86.000" y="5.500">(b) Two off-axis minima</text><g transform="translate(20.000,32.000) rotate(0.00) translate(1.905,0) scale(0.6970)"><path style="fill:none;stroke:#ababab;stroke-width:0.8895" d="m 0,0 1.316032,-0.0019 1.299165,1.046678 1.402923,-2.373415 1.402921,2.373415 1.402922,-2.373415 1.402921,2.373415 1.402922,-2.373415 1.402922,2.373415 1.452059,-2.373414 1.402921,2.373415 1.402922,-2.373415 1.402921,2.373415 1.402922,-2.373415 0.772267,1.306495 1.488466,0.03755"/></g><g transform="translate(38.000,32.000) rotate(0.00) translate(1.905,0) scale(0.6970)"><path style="fill:none;stroke:#ababab;stroke-width:0.8895" d="m 0,0 1.316032,-0.0019 1.299165,1.046678 1.402923,-2.373415 1.402921,2.373415 1.402922,-2.373415 1.402921,2.373415 1.402922,-2.373415 1.402922,2.373415 1.452059,-2.373414 1.402921,2.373415 1.402922,-2.373415 1.402921,2.373415 1.402922,-2.373415 0.772267,1.306495 1.488466,0.03755"/></g><circle style="fill:url(#hatch);stroke:#6f6f6f;stroke-width:0.4" cx="20.000" cy="32.000" r="2.505"/><circle style="fill:url(#hatch);stroke:#6f6f6f;stroke-width:0.4" cx="56.000" cy="32.000" r="2.505"/><circle style="fill:#d96464" cx="38.000" cy="32.000" r="2.705421"/><circle style="fill:none;stroke:#d96464;stroke-width:0.45;stroke-dasharray:1,0.8" cx="45.000" cy="32.000" r="2.505"/><circle style="fill:none;stroke:#d96464;stroke-width:0.45;stroke-dasharray:1,0.8" cx="38.000" cy="25.000" r="2.505"/><path style="fill:none;stroke:#158e50;stroke-width:0.55;marker-end:url(#Tri)" d="M 46.500,36.905 L 40.500,36.905"/><path style="fill:none;stroke:#158e50;stroke-width:0.55;marker-end:url(#Tri)" d="M 42.905,27.500 L 42.905,21.200"/><text style="font-size:3.0px;font-family:Arial,'Liberation Sans',sans-serif;text-anchor:middle;fill:#000;font-weight:normal" x="45.000" y="41.500">move in <tspan style='font-style:italic'>x</tspan>: <tspan style='font-style:italic'>E</tspan> rises, pushed back</text><text style="font-size:3.0px;font-family:Arial,'Liberation Sans',sans-serif;text-anchor:start;fill:#000;font-weight:normal" x="47.500" y="24.000">move in <tspan style='font-style:italic'>y</tspan>: <tspan style='font-style:italic'>E</tspan> falls, pushed away</text><text style="font-size:3.0px;font-family:Arial,'Liberation Sans',sans-serif;text-anchor:middle;fill:#000;font-weight:normal" x="29.000" y="27.500"><tspan style="font-style:italic">r</tspan> = <tspan style="font-style:italic">a</tspan> &lt; <tspan style="font-style:italic">l</tspan><tspan style="font-size:65%;baseline-shift:sub">0</tspan></text><g transform="translate(106.000,32.000) rotate(-33.56) translate(1.905,0) scale(0.8739)"><path style="fill:none;stroke:#ababab;stroke-width:0.7095" d="m 0,0 1.316032,-0.0019 1.299165,1.046678 1.402923,-2.373415 1.402921,2.373415 1.402922,-2.373415 1.402921,2.373415 1.402922,-2.373415 1.402922,2.373415 1.452059,-2.373414 1.402921,2.373415 1.402922,-2.373415 1.402921,2.373415 1.402922,-2.373415 0.772267,1.306495 1.488466,0.03755"/></g><g transform="translate(124.000,20.060) rotate(33.56) translate(1.905,0) scale(0.8739)"><path style="fill:none;stroke:#ababab;stroke-width:0.7095" d="m 0,0 1.316032,-0.0019 1.299165,1.046678 1.402923,-2.373415 1.402921,2.373415 1.402922,-2.373415 1.402921,2.373415 1.402922,-2.373415 1.402922,2.373415 1.452059,-2.373414 1.402921,2.373415 1.402922,-2.373415 1.402921,2.373415 1.402922,-2.373415 0.772267,1.306495 1.488466,0.03755"/></g><circle style="fill:url(#hatch);stroke:#6f6f6f;stroke-width:0.4" cx="106.000" cy="32.000" r="2.505"/><circle style="fill:url(#hatch);stroke:#6f6f6f;stroke-width:0.4" cx="142.000" cy="32.000" r="2.505"/><circle style="fill:#d96464" cx="124.000" cy="20.060" r="2.705421"/><circle style="fill:none;stroke:#d96464;stroke-width:0.45;stroke-dasharray:1,0.8" cx="124.000" cy="43.940" r="2.505"/><path style="fill:none;stroke:#bdbdbd;stroke-width:0.35;stroke-dasharray:1,1" d="M 106.000,32.000 L 124.000,43.940 L 142.000,32.000"/><text style="font-size:3.0px;font-family:Arial,'Liberation Sans',sans-serif;text-anchor:end;fill:#000;font-weight:normal" x="112.500" y="24.530"><tspan style="font-style:italic">r</tspan> = <tspan style="font-style:italic">l</tspan><tspan style="font-size:65%;baseline-shift:sub">0</tspan></text><text style="font-size:3.0px;font-family:Arial,'Liberation Sans',sans-serif;text-anchor:middle;fill:#000;font-weight:normal" x="124.000" y="15.355">minimum</text><text style="font-size:3.0px;font-family:Arial,'Liberation Sans',sans-serif;text-anchor:middle;fill:#000;font-weight:normal" x="124.000" y="51.045">mirror minimum</text><path style="fill:none;stroke:#444;stroke-width:0.35;marker-end:url(#Tri)" d="M 4.000,64.000 L 10.000,64.000"/><path style="fill:none;stroke:#444;stroke-width:0.35;marker-end:url(#Tri)" d="M 4.000,64.000 L 4.000,58.000"/><text style="font-size:3.0px;font-family:Arial,'Liberation Sans',sans-serif;text-anchor:middle;fill:#000;font-weight:normal" x="11.600" y="65.100"><tspan style="font-style:italic">x</tspan></text><text style="font-size:3.0px;font-family:Arial,'Liberation Sans',sans-serif;text-anchor:middle;fill:#000;font-weight:normal" x="4.000" y="56.800"><tspan style="font-style:italic">y</tspan></text><path style="fill:none;stroke:#444;stroke-width:0.35;marker-end:url(#Tri)" d="M 90.000,64.000 L 96.000,64.000"/><path style="fill:none;stroke:#444;stroke-width:0.35;marker-end:url(#Tri)" d="M 90.000,64.000 L 90.000,58.000"/><text style="font-size:3.0px;font-family:Arial,'Liberation Sans',sans-serif;text-anchor:middle;fill:#000;font-weight:normal" x="97.600" y="65.100"><tspan style="font-style:italic">x</tspan></text><text style="font-size:3.0px;font-family:Arial,'Liberation Sans',sans-serif;text-anchor:middle;fill:#000;font-weight:normal" x="90.000" y="56.800"><tspan style="font-style:italic">y</tspan></text><circle style="fill:url(#hatch);stroke:#6f6f6f;stroke-width:0.3" cx="34.00" cy="71.00" r="1.6"/><text style="font-size:3.0px;font-family:Arial,'Liberation Sans',sans-serif;text-anchor:start;fill:#000;font-weight:normal" x="36.500" y="72.100">fixed atom</text><circle style="fill:#d96464" cx="58.00" cy="71.00" r="1.6"/><text style="font-size:3.0px;font-family:Arial,'Liberation Sans',sans-serif;text-anchor:start;fill:#000;font-weight:normal" x="60.500" y="72.100">middle atom</text><circle style="fill:none;stroke:#d96464;stroke-width:0.45;stroke-dasharray:1,0.8" cx="83.000" cy="71.000" r="1.6"/><text style="font-size:3.0px;font-family:Arial,'Liberation Sans',sans-serif;text-anchor:start;fill:#000;font-weight:normal" x="85.500" y="72.100">displaced position</text><path style="fill:none;stroke:#158e50;stroke-width:0.55;marker-end:url(#Tri)" d="M 113.000,71.000 L 118.000,71.000"/><text style="font-size:3.0px;font-family:Arial,'Liberation Sans',sans-serif;text-anchor:start;fill:#000;font-weight:normal" x="121.500" y="72.100">force on the atom</text></svg>
